#!OML:ASF Y:\EmotionMaleHayes\Project 1\Capture day 1\Session 1\Male1.ASF
:FULLY-SPECIFIED
:DEGREES
816
root 36.981 16.4499 -1.73532 180.599 102.107 184.025
lowerback 4.35093 3.64637 -1.95628
upperback 7.01477 5.22372 -3.08075
thorax 4.96824 2.71259 -2.08965
lowerneck -22.282 -0.915817 -0.203802
upperneck 17.7744 -0.547737 -2.67666
head 9.25632 -0.571616 -0.970926
rclavicle 7.95139e-016 -2.14687e-014
rhumerus -19.9673 13.162 -95.5455
rradius 32.0914
rwrist -0.0617302
rhand -12.6818 -32.9434
rfingers 7.12502
rthumb 13.3999 -62.4925
lclavicle 7.95139e-016 -2.14687e-014
lhumerus -24.8171 -1.10554 86.2376
lradius 25.0644
lwrist 1.7881
lhand -18.5937 -20.0958
lfingers 7.12502
lthumb 7.6973 9.74416
rfemur 19.9272 6.95647 17.5652
rtibia 22.9228
rfoot -25.3538 -4.95576
rtoes -14.4769
lfemur -15.5065 -0.219497 -14.7231
ltibia 17.0909
lfoot -1.77037 9.52433
ltoes 1.84092
817
root 37.1046 16.4787 -1.77308 182.798 102.487 186.397
lowerback 4.34035 3.7077 -2.347
upperback 7.18276 5.33683 -3.33065
thorax 5.14944 2.76326 -2.12582
lowerneck -22.2774 -0.897401 0.0329316
upperneck 17.7106 -0.4552 -3.3025
head 9.23343 -0.583288 -1.2127
rclavicle -5.96354e-015 -1.74931e-014
rhumerus -19.9995 13.0001 -95.6072
rradius 31.4485
rwrist 0.144148
rhand -12.5641 -32.9365
rfingers 7.12502
rthumb 13.5134 -62.478
lclavicle -5.96354e-015 -1.74931e-014
lhumerus -24.4815 -0.699991 85.9628
lradius 24.842
lwrist -0.200378
lhand -18.6188 -19.9767
lfingers 7.12502
lthumb 7.67311 9.86411
rfemur 19.3323 6.91296 16.5308
rtibia 24.8479
rfoot -24.3192 -4.64605
rtoes -14.8601
lfemur -14.6772 -0.0753065 -15.6024
ltibia 16.8241
lfoot -2.12979 9.41466
ltoes 2.44588
818
root 37.2194 16.5097 -1.81066 183.867 102.872 187.588
lowerback 4.51351 3.73445 -2.58468
upperback 7.16781 5.37307 -3.50894
thorax 5.03556 2.77867 -2.19304
lowerneck -22.0606 -0.651007 0.760356
upperneck 17.7864 -0.112538 -4.32479
head 9.22827 -0.487316 -1.63668
rclavicle 3.61788e-014 -1.90833e-014
rhumerus -20.3674 12.729 -95.7524
rradius 30.9359
rwrist 0.878933
rhand -12.1739 -33.032
rfingers 7.12502
rthumb 13.8895 -62.5481
lclavicle 3.61788e-014 -1.90833e-014
lhumerus -24.3495 -0.378161 85.6587
lradius 24.5261
lwrist -2.41524
lhand -18.6792 -19.9324
lfingers 7.12502
lthumb 7.61483 9.91051
rfemur 18.727 7.177 15.9428
rtibia 26.2781
rfoot -22.6937 -4.30177
rtoes -11.8581
lfemur -13.9203 0.220924 -16.1522
ltibia 16.5883
lfoot -2.33482 9.23678
ltoes 2.33413
819
root 37.3275 16.5421 -1.84944 184.062 103.208 187.782
lowerback 4.71564 3.80274 -2.53813
upperback 7.11403 5.45702 -3.62104
thorax 4.88326 2.829 -2.35209
lowerneck -21.976 -0.592068 0.790774
upperneck 17.884 0.0188271 -4.55551
head 9.25212 -0.449157 -1.70369
rclavicle 2.32578e-014 -2.22639e-014
rhumerus -20.6708 12.4575 -95.7716
rradius 30.4263
rwrist 1.47153
rhand -11.7548 -33.1995
rfingers 7.12502
rthumb 14.2933 -62.6876
lclavicle 2.32578e-014 -2.22639e-014
lhumerus -24.0099 -0.0423285 85.4233
lradius 23.8827
lwrist -4.89082
lhand -18.6809 -20.3933
lfingers 7.12502
lthumb 7.61319 9.44965
rfemur 17.8628 7.07856 15.5015
rtibia 28.2672
rfoot -21.1221 -4.24918
rtoes -10.9548
lfemur -13.3254 0.486041 -16.4239
ltibia 16.363
lfoot -2.60198 9.11268
ltoes 1.68127
820
root 37.4373 16.5738 -1.8887 183.808 103.548 187.462
lowerback 4.72951 3.818 -2.40879
upperback 7.08605 5.47934 -3.69594
thorax 4.86615 2.84901 -2.50307
lowerneck -21.9089 -0.525507 0.778941
upperneck 18.0563 0.188087 -4.82247
head 9.30713 -0.400917 -1.77234
rclavicle 2.98177e-015 -1.35174e-014
rhumerus -20.9363 12.5871 -95.8311
rradius 29.9495
rwrist 1.91412
rhand -11.1691 -33.3122
rfingers 7.12502
rthumb 14.8576 -62.7594
lclavicle 2.98177e-015 -1.35174e-014
lhumerus -23.6084 -0.0172583 85.2363
lradius 23.1682
lwrist -7.01818
lhand -18.7762 -20.9529
lfingers 7.12502
lthumb 7.52122 8.89337
rfemur 16.8653 7.18634 15.2114
rtibia 30.0295
rfoot -19.2597 -4.02656
rtoes -7.51045
lfemur -12.7126 0.652581 -16.5614
ltibia 16.0026
lfoot -2.92505 9.13858
ltoes 1.67775
821
root 37.5475 16.6026 -1.92936 184.249 103.891 187.924
lowerback 4.74165 3.83197 -2.43059
upperback 7.08183 5.50399 -3.8141
thorax 4.86691 2.86527 -2.61476
lowerneck -21.7334 -0.498766 0.733428
upperneck 18.1693 0.30051 -5.04346
head 9.32068 -0.374442 -1.82562
rclavicle -3.1408e-014 -1.51076e-014
rhumerus -21.2592 12.8762 -95.8792
rradius 29.5205
rwrist 2.45474
rhand -10.4762 -33.3363
rfingers 7.12502
rthumb 15.5251 -62.7331
lclavicle -3.1408e-014 -1.51076e-014
lhumerus -23.2755 -0.568655 85.1737
lradius 22.5722
lwrist -8.7522
lhand -18.8949 -21.3476
lfingers 7.12502
lthumb 7.40658 8.50276
rfemur 15.8482 7.0985 14.6022
rtibia 31.9832
rfoot -17.4109 -3.82348
rtoes -4.50355
lfemur -11.9886 0.763062 -16.9459
ltibia 15.5511
lfoot -3.20887 9.19728
ltoes 2.16908
822
root 37.6569 16.6323 -1.9583 185.451 104.321 189.246
lowerback 4.82729 3.90622 -2.83732
upperback 7.10223 5.60497 -3.94948
thorax 4.82259 2.90305 -2.53774
lowerneck -21.5637 -0.451531 0.743579
upperneck 18.2871 0.455339 -5.39326
head 9.3394 -0.338635 -1.92714
rclavicle 2.98177e-015 4.77083e-015
rhumerus -21.5967 13.2802 -95.9304
rradius 29.1617
rwrist 2.68903
rhand -10.04 -33.3929
rfingers 7.12502
rthumb 15.9451 -62.7566
lclavicle 2.98177e-015 4.77083e-015
lhumerus -22.9799 -0.546327 85.005
lradius 22.1502
lwrist -11.1492
lhand -18.8484 -21.7056
lfingers 7.12502
lthumb 7.45149 8.14315
rfemur 14.9029 7.27388 13.927
rtibia 33.9123
rfoot -15.3345 -3.96295
rtoes -0.245845
lfemur -11.1742 0.946684 -17.4953
ltibia 15.0849
lfoot -3.48849 9.25451
ltoes 2.42151
823
root 37.7574 16.6599 -1.98763 185.866 104.677 189.711
lowerback 5.02667 3.94785 -3.05795
upperback 7.10121 5.653 -4.05191
thorax 4.70286 2.92288 -2.53873
lowerneck -21.7821 -0.436099 0.781435
upperneck 18.5431 0.530592 -5.59866
head 9.47211 -0.329566 -2.00073
rclavicle 3.77691e-015 3.26007e-014
rhumerus -21.838 13.6736 -96.0071
rradius 28.8348
rwrist 2.91972
rhand -9.54859 -33.4272
rfingers 7.12502
rthumb 16.4183 -62.7524
lclavicle 3.77691e-015 3.26007e-014
lhumerus -22.677 -0.109866 84.692
lradius 21.8509
lwrist -14.02
lhand -18.6886 -22.0408
lfingers 7.12502
lthumb 7.60569 7.80241
rfemur 13.8013 7.445 13.5332
rtibia 35.8416
rfoot -13.7733 -3.91703
rtoes 2.40345
lfemur -10.5601 1.15943 -17.8008
ltibia 14.8098
lfoot -3.70991 9.18069
ltoes 1.57219
824
root 37.8511 16.6809 -2.01528 186.278 105.003 190.187
lowerback 5.28239 3.9544 -3.35227
upperback 6.98002 5.63364 -4.14775
thorax 4.41429 2.90439 -2.50109
lowerneck -21.5482 -0.340684 0.950052
upperneck 18.7486 0.688144 -5.8727
head 9.51053 -0.272802 -2.10286
rclavicle 3.35946e-014 -1.27222e-014
rhumerus -22.3412 14.0789 -96.1672
rradius 28.6113
rwrist 3.51884
rhand -8.80095 -33.5265
rfingers 7.12502
rthumb 17.138 -62.7906
lclavicle 3.35946e-014 -1.27222e-014
lhumerus -22.6974 0.11574 84.3498
lradius 21.6283
lwrist -16.5788
lhand -18.512 -22.6309
lfingers 7.12502
lthumb 7.77621 7.20611
rfemur 12.5988 7.54129 13.1287
rtibia 37.8256
rfoot -12.1331 -4.14666
rtoes 6.07166
lfemur -10.0473 1.40052 -18.0816
ltibia 14.6781
lfoot -3.98487 9.11125
ltoes 1.20687
825
root 37.9492 16.6983 -2.04096 187.771 105.285 191.829
lowerback 5.41543 4.03971 -3.85034
upperback 7.15416 5.75882 -4.26799
thorax 4.49793 2.95302 -2.35847
lowerneck -22.286 -0.49342 0.733611
upperneck 19.3677 0.647925 -6.0896
head 9.86276 -0.350095 -2.16835
rclavicle 3.06128e-014 -2.78299e-014
rhumerus -22.3355 14.3893 -95.94
rradius 28.4507
rwrist 4.1997
rhand -7.96141 -33.6258
rfingers 7.12502
rthumb 17.946 -62.8178
lclavicle 3.06128e-014 -2.78299e-014
lhumerus -22.1464 -0.108033 84.3085
lradius 21.3664
lwrist -18.758
lhand -18.457 -23.4019
lfingers 7.12502
lthumb 7.8293 6.43311
rfemur 11.5534 7.50184 12.3276
rtibia 39.7054
rfoot -10.1584 -4.43905
rtoes 10.7297
lfemur -9.44902 1.64274 -18.7703
ltibia 14.5478
lfoot -4.38853 8.98412
ltoes 1.53355
826
root 38.0425 16.7181 -2.06309 188.88 105.449 193.078
lowerback 5.5266 3.99049 -4.38098
upperback 7.27601 5.69589 -4.36104
thorax 4.52883 2.90299 -2.16762
lowerneck -22.0422 -0.314304 0.559979
upperneck 19.1662 0.917948 -5.99774
head 9.75778 -0.220628 -2.06128
rclavicle -6.34123e-014 -3.02153e-014
rhumerus -22.5037 15.3198 -96.0406
rradius 28.2976
rwrist 3.959
rhand -7.98329 -33.1678
rfingers 7.12502
rthumb 17.9249 -62.3618
lclavicle -6.34123e-014 -3.02153e-014
lhumerus -21.7226 -0.3051 84.145
lradius 21.1133
lwrist -20.5287
lhand -18.5278 -24.0696
lfingers 7.12502
lthumb 7.76097 5.76797
rfemur 10.5485 7.39712 11.7088
rtibia 41.5257
rfoot -8.29986 -4.73064
rtoes 13.8579
lfemur -8.89234 1.89352 -19.3226
ltibia 14.444
lfoot -4.7459 8.71362
ltoes 0.311292
827
root 38.1295 16.7358 -2.0853 189.979 105.768 194.186
lowerback 5.67113 4.08539 -4.7758
upperback 7.33451 5.82113 -4.50127
thorax 4.4941 2.95596 -2.10926
lowerneck -22.2864 -0.396413 0.44269
upperneck 19.3048 0.883223 -6.10358
head 9.85094 -0.263188 -2.0893
rclavicle 2.0276e-014 -4.21423e-014
rhumerus -22.6791 15.786 -96.0268
rradius 28.3825
rwrist 4.00893
rhand -7.59446 -33.2224
rfingers 7.12502
rthumb 18.299 -62.3816
lclavicle 2.0276e-014 -4.21423e-014
lhumerus -21.2229 -0.953897 84.1117
lradius 20.9149
lwrist -21.9222
lhand -18.2343 -24.4738
lfingers 7.12502
lthumb 8.04423 5.35312
rfemur 9.26577 7.37243 11.0525
rtibia 43.3416
rfoot -6.6046 -5.03866
rtoes 15.4751
lfemur -8.47483 2.25006 -19.837
ltibia 14.2524
lfoot -5.05981 8.49599
ltoes -1.30201
828
root 38.2189 16.7495 -2.10804 191.424 106.047 195.7
lowerback 5.79039 4.05415 -5.39118
upperback 7.27309 5.75726 -4.6423
thorax 4.3247 2.90341 -1.93039
lowerneck -22.0269 -0.300784 0.382709
upperneck 19.384 1.04119 -6.10477
head 9.8387 -0.190572 -2.05508
rclavicle -3.81667e-014 2.94201e-014
rhumerus -23.2337 16.4376 -96.1654
rradius 28.6568
rwrist 4.46592
rhand -6.70717 -33.4101
rfingers 7.12502
rthumb 19.1524 -62.4871
lclavicle -3.81667e-014 2.94201e-014
lhumerus -21.2316 -1.36533 83.9767
lradius 21.0377
lwrist -22.8013
lhand -17.6085 -24.6699
lfingers 7.12502
lthumb 8.64818 5.13297
rfemur 8.15108 7.24501 10.2433
rtibia 44.9212
rfoot -4.95263 -5.49097
rtoes 17.2412
lfemur -7.98763 2.57229 -20.5104
ltibia 14.0701
lfoot -5.37271 8.1899
ltoes -2.32231
829
root 38.3071 16.7598 -2.13017 192.382 106.175 196.76
lowerback 5.89452 4.00536 -5.76992
upperback 7.3802 5.69586 -4.7435
thorax 4.3616 2.86134 -1.83167
lowerneck -21.9335 -0.292475 0.300946
upperneck 19.2585 1.07555 -6.12206
head 9.77888 -0.17937 -2.03953
rclavicle -1.39149e-014 3.65764e-014
rhumerus -23.4164 16.9208 -96.0984
rradius 28.8373
rwrist 5.16008
rhand -5.73837 -33.312
rfingers 7.12502
rthumb 20.0838 -62.2939
lclavicle -1.39149e-014 3.65764e-014
lhumerus -20.9259 -2.02031 83.9301
lradius 21.1326
lwrist -23.2603
lhand -17.2596 -25.1507
lfingers 7.12502
lthumb 8.98482 4.63796
rfemur 7.20895 6.95903 9.62488
rtibia 46.3964
rfoot -3.49149 -6.09386
rtoes 19.4975
lfemur -7.48188 2.84652 -21.0302
ltibia 13.9254
lfoot -5.52106 7.90868
ltoes -2.17759
